<svg width="46" height="48" viewBox="0 0 46 48" fill="none" xmlns="http://www.w3.org/2000/svg">
<path d="M37 48H3C2.20435 48 1.44129 47.6839 0.87868 47.1213C0.316071 46.5587 0 45.7956 0 45V9C5.66374e-05 8.73481 0.105451 8.48049 0.293 8.293L8.293 0.293C8.48049 0.105451 8.73481 5.66374e-05 9 0H37C37.7956 0 38.5587 0.31607 39.1213 0.87868C39.6839 1.44129 40 2.20435 40 3V26H38V3C38 2.73478 37.8946 2.48043 37.7071 2.29289C37.5196 2.10536 37.2652 2 37 2H9.414L2 9.414V45C2 45.2652 2.10536 45.5196 2.29289 45.7071C2.48043 45.8946 2.73478 46 3 46H37C37.2652 46 37.5196 45.8946 37.7071 45.7071C37.8946 45.5196 38 45.2652 38 45V36H40V45C40 45.7956 39.6839 46.5587 39.1213 47.1213C38.5587 47.6839 37.7956 48 37 48Z" fill="black"/>
<path d="M7 10H1V8H7C7.26522 8 7.51957 7.89464 7.70711 7.70711C7.89464 7.51957 8 7.26522 8 7V1H10V7C10 7.79565 9.68393 8.55871 9.12132 9.12132C8.55871 9.68393 7.79565 10 7 10Z" fill="black"/>
<path d="M36 9H34V7C34 6.73478 33.8946 6.48043 33.7071 6.29289C33.5196 6.10536 33.2652 6 33 6H31V4H33C33.7956 4 34.5587 4.31607 35.1213 4.87868C35.6839 5.44129 36 6.20435 36 7V9Z" fill="black"/>
<path d="M29 4H27V6H29V4Z" fill="black"/>
<path d="M29 44H15C14.2044 44 13.4413 43.6839 12.8787 43.1213C12.3161 42.5587 12 41.7956 12 41C12 40.2044 12.3161 39.4413 12.8787 38.8787C13.4413 38.3161 14.2044 38 15 38H29C29.7956 38 30.5587 38.3161 31.1213 38.8787C31.6839 39.4413 32 40.2044 32 41C32 41.7956 31.6839 42.5587 31.1213 43.1213C30.5587 43.6839 29.7956 44 29 44ZM15 40C14.7348 40 14.4804 40.1054 14.2929 40.2929C14.1054 40.4804 14 40.7348 14 41C14 41.2652 14.1054 41.5196 14.2929 41.7071C14.4804 41.8946 14.7348 42 15 42H29C29.2652 42 29.5196 41.8946 29.7071 41.7071C29.8946 41.5196 30 41.2652 30 41C30 40.7348 29.8946 40.4804 29.7071 40.2929C29.5196 40.1054 29.2652 40 29 40H15Z" fill="black"/>
<path d="M29 24H15C14.2044 24 13.4413 23.6839 12.8787 23.1213C12.3161 22.5587 12 21.7956 12 21C12 20.2044 12.3161 19.4413 12.8787 18.8787C13.4413 18.3161 14.2044 18 15 18H29C29.7956 18 30.5587 18.3161 31.1213 18.8787C31.6839 19.4413 32 20.2044 32 21C32 21.7956 31.6839 22.5587 31.1213 23.1213C30.5587 23.6839 29.7956 24 29 24ZM15 20C14.7348 20 14.4804 20.1054 14.2929 20.2929C14.1054 20.4804 14 20.7348 14 21C14 21.2652 14.1054 21.5196 14.2929 21.7071C14.4804 21.8946 14.7348 22 15 22H29C29.2652 22 29.5196 21.8946 29.7071 21.7071C29.8946 21.5196 30 21.2652 30 21C30 20.7348 29.8946 20.4804 29.7071 20.2929C29.5196 20.1054 29.2652 20 29 20H15Z" fill="black"/>
<g id="Hammer">
<path d="M28 40H16C15.7348 40 15.4804 39.8946 15.2929 39.7071C15.1054 39.5196 15 39.2652 15 39V23C15 22.7348 15.1054 22.4804 15.2929 22.2929C15.4804 22.1054 15.7348 22 16 22H28C28.2652 22 28.5196 22.1054 28.7071 22.2929C28.8946 22.4804 29 22.7348 29 23V39C29 39.2652 28.8946 39.5196 28.7071 39.7071C28.5196 39.8946 28.2652 40 28 40ZM17 38H27V24H17V38Z" fill="black"/>
<path d="M30 35H28V33H30C30.2652 33 30.5196 32.8946 30.7071 32.7071C30.8946 32.5196 31 32.2652 31 32V30C31 29.7348 30.8946 29.4804 30.7071 29.2929C30.5196 29.1054 30.2652 29 30 29H28V27H30C30.7956 27 31.5587 27.3161 32.1213 27.8787C32.6839 28.4413 33 29.2044 33 30V32C33 32.7956 32.6839 33.5587 32.1213 34.1213C31.5587 34.6839 30.7956 35 30 35Z" fill="black"/>
<path d="M45 34H32V32H44V30H32V28H45C45.2652 28 45.5196 28.1054 45.7071 28.2929C45.8946 28.4804 46 28.7348 46 29V33C46 33.2652 45.8946 33.5196 45.7071 33.7071C45.5196 33.8946 45.2652 34 45 34Z" fill="black"/>
<path d="M35 13H6V15H35V13Z" fill="black"/>
<path d="M10 18H6V20H10V18Z" fill="black"/>
</g>
<path d="M10 23H6V25H10V23Z" fill="black"/>
<path d="M13 28H6V30H13V28Z" fill="black"/>
<path d="M13 33H6V35H13V33Z" fill="black"/>
<path d="M10 38H6V40H10V38Z" fill="black"/>
</svg>
