<svg width="800" height="800" viewBox="0 0 800 800" fill="none" xmlns="http://www.w3.org/2000/svg">
<path d="M327.614 697.73C327.614 680.151 314.36 665.902 298.014 665.902H74.4763C58.1306 665.902 44.8771 680.151 44.8771 697.73C44.8771 703.269 46.1959 708.476 48.5125 713.013H6V779H366.489V713.013H323.978C326.369 708.33 327.62 703.073 327.614 697.73ZM289.575 153.562L478.45 282.523C493.138 290.571 511.385 285.432 520.398 270.165L529.462 254.824C539.036 238.609 534.574 217.121 519.497 206.825L335.834 81.4229C320.757 71.1279 300.773 75.9244 291.197 92.1391L282.133 107.482C273.121 122.747 276.552 142.69 289.575 153.562ZM799.915 646.226L799.783 643.154L799.549 640.258C799.427 638.276 799.169 636.513 798.945 634.702C798.147 628.226 796.69 621.863 794.602 615.728C790.77 604.658 785.351 596.276 778.696 589.994C777.04 588.412 775.269 587.025 773.508 585.612L768.237 581.377C764.735 578.529 761.164 575.799 757.617 573.029C754.072 570.258 750.502 567.526 746.906 564.832C743.335 562.106 739.739 559.419 736.119 556.769C728.916 551.415 721.636 546.194 714.339 540.99L703.359 533.252L692.315 525.616C684.932 520.57 677.537 515.537 670.092 510.592C662.658 505.625 655.195 500.706 647.689 495.864L625.153 481.366L602.467 467.118L579.655 453.084L556.731 439.239L533.699 425.576L510.559 412.102C502.818 407.654 495.084 403.197 487.291 398.836C479.517 394.452 471.75 390.046 463.918 385.752L456.828 397.761L421.086 379.648L461.037 311.998L272.164 183.038L173.912 349.405L362.788 478.365L402.738 410.715L433.187 437.795L426.094 449.805C433.04 455.6 440.05 461.28 447.049 466.985C454.031 472.712 461.073 478.343 468.108 483.985L489.29 500.775L510.588 517.377L531.991 533.799L553.506 550.026L575.144 566.047L596.931 581.813C604.202 587.054 611.512 592.233 618.859 597.351C626.188 602.493 633.567 607.547 640.957 612.592L652.078 620.087L663.259 627.482C670.743 632.367 678.235 637.233 685.805 641.969C689.575 644.364 693.367 646.721 697.179 649.038C700.976 651.39 704.795 653.702 708.635 655.972C712.477 658.246 716.293 660.56 720.177 662.753L725.985 666.084C727.921 667.194 729.843 668.331 731.881 669.269C740 673.072 749.358 674.781 760.303 673.8C766.356 673.226 772.332 671.938 778.124 669.959C779.744 669.409 781.335 668.908 783.057 668.185L785.595 667.18L788.237 666.001C791.759 664.424 795.529 662.425 799.617 659.896C800.007 654.845 800.085 650.327 799.915 646.226ZM115.46 454.582L299.12 579.982C314.2 590.277 334.185 585.481 343.759 569.268L352.821 553.925C361.836 538.656 358.403 518.716 345.381 507.844L156.508 378.882C141.819 370.835 123.571 375.973 114.556 391.242L105.496 406.583C95.9179 422.797 100.38 444.287 115.46 454.582Z" fill="#6B401C"/>
</svg>
